# xmcd CD database file
#
# Track frame offsets:
#	150
#	18547
#	36887
#	53909
#	93015
#
# Disc length: 1842 seconds
#
# Revision: 2
# Processed by: cddbd v1.4PL0 Copyright (c) Steve Scherf et al.
# Submitted via: CDex 1.50Beta6
#
DISCID=34073005
DTITLE=Drop City - Secret Riots
DYEAR=1998
DGENRE=Rock
TTITLE0=Step Back Into The Sun
TTITLE1=I Don't Want To Feel This Way
TTITLE2=Do You Believe In Magic?
TTITLE3=Kaleides Into Me
TTITLE4=Wishing Myself Away
EXTD=YEAR: 1998
EXTT0=
EXTT1=
EXTT2=
EXTT3=
EXTT4=
PLAYORDER=
